<svg width="14" height="14" viewBox="0 0 14 14" fill="none" xmlns="http://www.w3.org/2000/svg">
<path d="M3.00016 8.33325H11.0002V6.99992H3.00016V8.33325ZM3.00016 6.33325H11.0002V4.99992H3.00016V6.33325ZM3.00016 4.33325H11.0002V2.99992H3.00016V4.33325ZM13.6668 13.6666L11.0002 10.9999H1.66683C1.30016 10.9999 0.986385 10.8695 0.725496 10.6086C0.464163 10.3473 0.333496 10.0333 0.333496 9.66658V1.66659C0.333496 1.29992 0.464163 0.985919 0.725496 0.724585C0.986385 0.463696 1.30016 0.333252 1.66683 0.333252H12.3335C12.7002 0.333252 13.0142 0.463696 13.2755 0.724585C13.5364 0.985919 13.6668 1.29992 13.6668 1.66659V13.6666ZM1.66683 1.66659V9.66658H11.5502L12.3335 10.4499V1.66659H1.66683ZM1.66683 1.66659V10.4499V9.66658V1.66659Z" fill="#8D8D92"/>
</svg>
