<svg width="12" height="10" viewBox="0 0 12 10" fill="none" xmlns="http://www.w3.org/2000/svg">
<path d="M11.424 7.22395C11.483 7.16902 11.5303 7.10278 11.563 7.02918C11.5958 6.95558 11.6135 6.87613 11.6149 6.79557C11.6163 6.71501 11.6015 6.63498 11.5713 6.56027C11.5411 6.48556 11.4962 6.4177 11.4393 6.36072C11.3823 6.30375 11.3144 6.25883 11.2397 6.22865C11.165 6.19848 11.085 6.18366 11.0044 6.18508C10.9238 6.1865 10.8444 6.20413 10.7708 6.23693C10.6972 6.26972 10.631 6.317 10.576 6.37595L9.20002 7.75195L9.20002 0.799951C9.20002 0.640821 9.13681 0.488209 9.02429 0.375687C8.91177 0.263165 8.75915 0.199951 8.60002 0.199951C8.44089 0.199951 8.28828 0.263165 8.17576 0.375687C8.06324 0.488209 8.00002 0.640821 8.00002 0.799951L8.00002 7.75195L6.62402 6.37595C6.56909 6.317 6.50285 6.26972 6.42925 6.23693C6.35565 6.20413 6.2762 6.1865 6.19564 6.18508C6.11508 6.18366 6.03506 6.19848 5.96035 6.22865C5.88563 6.25883 5.81777 6.30375 5.76079 6.36072C5.70382 6.4177 5.6589 6.48556 5.62873 6.56027C5.59855 6.63498 5.58373 6.71501 5.58515 6.79557C5.58657 6.87613 5.6042 6.95558 5.637 7.02918C5.66979 7.10278 5.71707 7.16902 5.77602 7.22395L8.17602 9.62395C8.28852 9.73631 8.44102 9.79942 8.60002 9.79942C8.75902 9.79942 8.91152 9.73631 9.02402 9.62395L11.424 7.22395ZM5.37602 3.62395C5.43095 3.6829 5.49719 3.73018 5.57079 3.76298C5.64439 3.79577 5.72384 3.8134 5.80441 3.81482C5.88497 3.81625 5.96499 3.80143 6.0397 3.77125C6.11441 3.74107 6.18228 3.69616 6.23925 3.63918C6.29623 3.58221 6.34114 3.51434 6.37132 3.43963C6.4015 3.36492 6.41632 3.2849 6.4149 3.20433C6.41348 3.12377 6.39584 3.04432 6.36305 2.97072C6.33025 2.89712 6.28297 2.83088 6.22402 2.77595L3.82402 0.375951C3.71152 0.26359 3.55902 0.200479 3.40002 0.200479C3.24102 0.200479 3.08852 0.26359 2.97602 0.375951L0.576023 2.77595C0.470039 2.88969 0.412341 3.04013 0.415084 3.19557C0.417827 3.35101 0.480796 3.49932 0.590726 3.60925C0.700657 3.71918 0.848965 3.78215 1.00441 3.78489C1.15985 3.78763 1.31028 3.72993 1.42402 3.62395L2.80002 2.24795L2.80002 9.19995C2.80002 9.35908 2.86324 9.51169 2.97576 9.62421C3.08828 9.73674 3.24089 9.79995 3.40002 9.79995C3.55915 9.79995 3.71176 9.73674 3.82429 9.62421C3.93681 9.51169 4.00002 9.35908 4.00002 9.19995L4.00002 2.24795L5.37602 3.62395Z" fill="black"/>
</svg>
