<svg width="24" height="24" viewBox="0 0 24 24" fill="none" xmlns="http://www.w3.org/2000/svg">
<path fill-rule="evenodd" clip-rule="evenodd" d="M20.4172 5.33864C21.3454 6.2019 21.9111 7.38551 21.9998 8.65001V8.74002C22.0052 8.8266 22.0052 8.91343 21.9998 9.00002V16.5C22.0025 16.9604 21.9138 17.4167 21.7388 17.8425C21.5639 18.2684 21.3062 18.6553 20.9806 18.9808C20.6551 19.3063 20.2682 19.564 19.8424 19.739C19.4165 19.914 18.9602 20.0027 18.4998 20C17.1236 20 16.2476 18.9905 15.4082 18.0232L15.3098 17.91L15.2105 17.795C14.9216 17.4602 14.6237 17.115 14.3098 16.81C13.8455 16.4699 13.3239 16.2159 12.7698 16.06C12.2583 16 11.7414 16 11.2298 16.06C10.6758 16.2159 10.1542 16.4699 9.68983 16.81C9.37592 17.115 9.07809 17.4601 8.78913 17.795L8.68983 17.91L8.68016 17.9215C7.81323 18.9479 6.92453 20 5.49984 20C5.03947 20.0027 4.58315 19.914 4.15731 19.739C3.73147 19.564 3.34458 19.3063 3.01905 18.9808C2.69351 18.6553 2.4358 18.2684 2.26085 17.8425C2.0859 17.4167 1.99718 16.9604 1.99983 16.5V9.00002C1.9942 8.91344 1.9942 8.82659 1.99983 8.74002C2.06651 7.45951 2.62259 6.25356 3.55314 5.37139C4.48369 4.48923 5.71759 3.99828 6.99984 4.00002H16.9998C18.2674 3.99691 19.4889 4.47538 20.4172 5.33864ZM7.99984 12C9.1044 12 9.99984 11.1046 9.99984 10C9.99984 8.89545 9.1044 8.00001 7.99984 8.00001C6.89527 8.00001 5.99984 8.89545 5.99984 10C5.99984 11.1046 6.89527 12 7.99984 12ZM14.9998 10C14.9998 10.5523 14.5521 11 13.9998 11C13.4476 11 12.9998 10.5523 12.9998 10C12.9998 9.44773 13.4476 9.00001 13.9998 9.00001C14.5521 9.00001 14.9998 9.44773 14.9998 10ZM15.9998 13C16.5521 13 16.9998 12.5523 16.9998 12C16.9998 11.4477 16.5521 11 15.9998 11C15.4476 11 14.9998 11.4477 14.9998 12C14.9998 12.5523 15.4476 13 15.9998 13ZM18.9998 10C18.9998 10.5523 18.5521 11 17.9998 11C17.4475 11 16.9998 10.5523 16.9998 10C16.9998 9.44773 17.4475 9.00001 17.9998 9.00001C18.5521 9.00001 18.9998 9.44773 18.9998 10ZM15.9998 9.00001C16.5521 9.00001 16.9998 8.5523 16.9998 8.00001C16.9998 7.44773 16.5521 7.00002 15.9998 7.00002C15.4476 7.00002 14.9998 7.44773 14.9998 8.00001C14.9998 8.5523 15.4476 9.00001 15.9998 9.00001Z" fill="#8D8D92"/>
</svg>
