<svg width="17" height="16" viewBox="0 0 17 16" fill="none" xmlns="http://www.w3.org/2000/svg">
<path d="M14.7554 4.43126C14.5459 3.94632 14.2439 3.50687 13.8663 3.13751C13.4884 2.76705 13.0428 2.47265 12.5538 2.27032C12.0467 2.05969 11.5029 1.95187 10.9538 1.95314C10.1835 1.95314 9.43193 2.16407 8.77881 2.56251C8.62256 2.65782 8.47412 2.76251 8.3335 2.87657C8.19287 2.76251 8.04443 2.65782 7.88818 2.56251C7.23506 2.16407 6.4835 1.95314 5.71318 1.95314C5.1585 1.95314 4.621 2.05939 4.11318 2.27032C3.62256 2.47345 3.18037 2.76564 2.80068 3.13751C2.42255 3.50645 2.12049 3.94601 1.91162 4.43126C1.69443 4.93595 1.5835 5.47189 1.5835 6.02345C1.5835 6.54376 1.68975 7.08595 1.90068 7.63751C2.07725 8.09845 2.33037 8.57657 2.65381 9.05939C3.16631 9.82345 3.871 10.6203 4.746 11.4281C6.196 12.7672 7.63193 13.6922 7.69287 13.7297L8.06318 13.9672C8.22725 14.0719 8.43818 14.0719 8.60225 13.9672L8.97256 13.7297C9.0335 13.6906 10.4679 12.7672 11.9194 11.4281C12.7944 10.6203 13.4991 9.82345 14.0116 9.05939C14.3351 8.57657 14.5897 8.09845 14.7647 7.63751C14.9757 7.08595 15.0819 6.54376 15.0819 6.02345C15.0835 5.47189 14.9726 4.93595 14.7554 4.43126ZM8.3335 12.7313C8.3335 12.7313 2.771 9.1672 2.771 6.02345C2.771 4.43126 4.08818 3.14064 5.71318 3.14064C6.85537 3.14064 7.846 3.77814 8.3335 4.70939C8.821 3.77814 9.81162 3.14064 10.9538 3.14064C12.5788 3.14064 13.896 4.43126 13.896 6.02345C13.896 9.1672 8.3335 12.7313 8.3335 12.7313Z" fill="#8D8D93"/>
</svg>
