<svg width="24" height="24" viewBox="0 0 24 24" fill="none" xmlns="http://www.w3.org/2000/svg">
<path fill-rule="evenodd" clip-rule="evenodd" d="M3 20C3 20.5523 3.44772 21 4 21H20C20.5523 21 21 20.5523 21 20V4C21 3.44772 20.5523 3 20 3H4C3.44772 3 3 3.44772 3 4V20ZM18.7071 7.29289C19.0976 7.68342 19.0976 8.31658 18.7071 8.70711L12.7778 14.6364C12.3482 15.066 11.6518 15.066 11.2222 14.6364L10 13.4142L6.70711 16.7071C6.31658 17.0976 5.68342 17.0976 5.29289 16.7071C4.90237 16.3166 4.90237 15.6834 5.29289 15.2929L9.22218 11.3636C9.65176 10.934 10.3482 10.934 10.7778 11.3636L12 12.5858L17.2929 7.29289C17.6834 6.90237 18.3166 6.90237 18.7071 7.29289Z" fill="#8D8D92"/>
</svg>
