<svg width="45" height="57" viewBox="0 0 45 57" fill="none" xmlns="http://www.w3.org/2000/svg">
<g filter="url(#filter0_d_2014_19033)">
<path fill-rule="evenodd" clip-rule="evenodd" d="M16.7915 32.1418L17.0758 34.7949C17.1419 35.4124 17.3276 36.0196 17.6505 36.6264C18.0293 37.2772 18.4712 37.823 18.973 38.2769C19.4739 38.7301 20.0519 39.1077 20.7184 39.4074C21.343 39.6579 21.958 39.776 22.5752 39.776C23.2528 39.776 23.8705 39.6679 24.4417 39.4622L24.4533 39.4581L24.4649 39.454C25.0885 39.2382 25.5868 38.9538 25.9876 38.617C26.418 38.2503 26.7365 37.8345 26.9629 37.3611L26.9705 37.3453L26.9783 37.3296C27.2124 36.8613 27.3432 36.3231 27.3432 35.68C27.3432 34.5666 27.1279 33.9128 26.8906 33.5421L26.875 33.5178L26.8602 33.493C26.5634 32.9984 26.1928 32.6538 25.7325 32.4144L26.6552 30.64C27.4552 31.056 28.0952 31.664 28.5752 32.464C29.0872 33.264 29.3432 34.336 29.3432 35.68C29.3432 36.608 29.1512 37.456 28.7672 38.224C28.4152 38.96 27.9192 39.6 27.2792 40.144C26.6712 40.656 25.9512 41.056 25.1192 41.344C24.3192 41.632 23.4712 41.776 22.5752 41.776C21.6792 41.776 20.7992 41.6 19.9352 41.248C19.0712 40.864 18.3032 40.368 17.6312 39.76C16.9592 39.152 16.3832 38.432 15.9032 37.6C15.7896 37.3892 15.6874 37.1763 15.5965 36.9613C15.3286 36.3281 15.1588 35.677 15.0872 35.008L10.4312 36.928C11.3912 40.16 12.8472 42.528 14.7992 44.032C16.7512 45.536 19.3592 46.288 22.6232 46.288C24.2552 46.288 25.7912 46.048 27.2312 45.568C28.7032 45.088 29.9832 44.384 31.0712 43.456C32.1592 42.528 33.0232 41.408 33.6632 40.096C34.3032 38.752 34.6232 37.232 34.6232 35.536C34.6232 33.296 34.0472 31.504 32.8952 30.16C32.278 29.4228 31.5231 28.7959 30.6304 28.2791C29.8568 27.8313 28.9797 27.4663 27.9992 27.184C28.9911 26.874 29.8516 26.4815 30.5808 26.0064C31.3571 25.5005 31.9846 24.9011 32.4632 24.208C33.3912 22.864 33.8552 21.168 33.8552 19.12C33.8552 17.616 33.5512 16.304 32.9432 15.184C32.3672 14.032 31.5832 13.072 30.5912 12.304C29.6312 11.536 28.5112 10.96 27.2312 10.576C25.9832 10.192 24.6872 10 23.3432 10C20.0472 10 17.3592 10.912 15.2792 12.736C13.6492 14.1403 12.5203 15.9672 11.8925 18.2165C11.8084 18.5178 11.7333 18.8268 11.6672 19.1433C11.5971 19.479 11.5371 19.8232 11.4872 20.176L16.7192 21.088C16.6717 20.3759 16.7211 19.7078 16.8673 19.0837C16.9182 18.8664 16.9808 18.6546 17.0552 18.448C17.3752 17.648 17.8232 16.96 18.3992 16.384C18.9752 15.808 19.6632 15.36 20.4632 15.04C21.2952 14.688 22.1592 14.512 23.0552 14.512C24.8152 14.512 26.1912 15.008 27.1832 16C28.2072 16.96 28.7192 18.304 28.7192 20.032C28.7192 21.216 28.4792 22.176 27.9992 22.912C27.5512 23.648 26.9592 24.24 26.2232 24.688C25.4872 25.104 24.6392 25.392 23.6792 25.552C22.7192 25.712 21.7432 25.792 20.7512 25.792V29.632C21.8392 29.632 22.8952 29.696 23.9192 29.824C24.9432 29.952 25.8552 30.224 26.6552 30.64L25.7325 32.4144C25.1712 32.1226 24.4931 31.9113 23.6711 31.8086C22.7337 31.6914 21.7607 31.632 20.7512 31.632H18.7512V23.792H20.7512C21.6351 23.792 22.5011 23.7208 23.3504 23.5792C24.0999 23.4543 24.711 23.2403 25.2104 22.963C25.6604 22.6836 26.0145 22.326 26.2908 21.8721L26.3069 21.8455L26.3239 21.8195C26.5301 21.5033 26.7192 20.9594 26.7192 20.032C26.7192 18.7198 26.3459 17.9565 25.8153 17.4591L25.7918 17.437L25.7689 17.4142C25.242 16.8873 24.4272 16.512 23.0552 16.512C22.4292 16.512 21.83 16.6334 21.2424 16.8819L21.2243 16.8896L21.2059 16.897C20.6427 17.1223 20.1869 17.4247 19.8134 17.7982C19.4472 18.1644 19.1494 18.6096 18.9255 19.1576C18.7503 19.6592 18.6677 20.2491 18.7147 20.955L18.8841 23.4955L9.23567 21.8137L9.50687 19.896C10.0104 16.3352 11.4644 13.3857 13.9671 11.2265C16.4782 9.02755 19.6629 8 23.3432 8C24.8783 8 26.3707 8.21943 27.8127 8.6624C29.3087 9.11206 30.6559 9.7973 31.8281 10.7323C33.0493 11.6807 34.0142 12.8646 34.7171 14.2599C35.4992 15.714 35.8552 17.355 35.8552 19.12C35.8552 21.4704 35.3202 23.5902 34.109 25.3444C33.6523 26.0058 33.1063 26.5863 32.4833 27.0924C33.2058 27.6021 33.8546 28.192 34.4212 28.8673C35.954 30.6604 36.6232 32.9532 36.6232 35.536C36.6232 37.488 36.2535 39.3081 35.4689 40.9559L35.4648 40.9644L35.4607 40.9728C34.7028 42.5266 33.6706 43.8676 32.3691 44.9777C31.0678 46.0876 29.5548 46.9131 27.8574 47.4674C26.2005 48.0189 24.4517 48.288 22.6232 48.288C19.0607 48.288 15.9789 47.4658 13.5785 45.6163C11.1906 43.7764 9.55049 40.9871 8.51395 37.4975L8 35.7672L16.7915 32.1418Z" fill="white"/>
</g>
<defs>
<filter id="filter0_d_2014_19033" x="0" y="0" width="44.623" height="56.288" filterUnits="userSpaceOnUse" color-interpolation-filters="sRGB">
<feFlood flood-opacity="0" result="BackgroundImageFix"/>
<feColorMatrix in="SourceAlpha" type="matrix" values="0 0 0 0 0 0 0 0 0 0 0 0 0 0 0 0 0 0 127 0" result="hardAlpha"/>
<feOffset/>
<feGaussianBlur stdDeviation="4"/>
<feComposite in2="hardAlpha" operator="out"/>
<feColorMatrix type="matrix" values="0 0 0 0 0 0 0 0 0 0 0 0 0 0 0 0 0 0 0.16 0"/>
<feBlend mode="normal" in2="BackgroundImageFix" result="effect1_dropShadow_2014_19033"/>
<feBlend mode="normal" in="SourceGraphic" in2="effect1_dropShadow_2014_19033" result="shape"/>
</filter>
</defs>
</svg>
