<svg width="24" height="24" viewBox="0 0 24 24" fill="none" xmlns="http://www.w3.org/2000/svg">
<path d="M19 22H5C4.44772 22 4 21.5523 4 21V9C4 8.44772 4.44772 8 5 8H19C19.5523 8 20 8.44772 20 9V21C20 21.5523 19.5523 22 19 22Z" fill="#8D8D92"/>
<path fill-rule="evenodd" clip-rule="evenodd" d="M7 3C7 2.44772 7.44772 2 8 2H16C16.5523 2 17 2.44772 17 3H7Z" fill="#8D8D92"/>
<path fill-rule="evenodd" clip-rule="evenodd" d="M6 5C6 4.44772 6.44772 4 7 4H17C17.5523 4 18 4.44772 18 5H6Z" fill="#8D8D92"/>
<path fill-rule="evenodd" clip-rule="evenodd" d="M6 6C5.44772 6 5 6.44772 5 7H19C19 6.44772 18.5523 6 18 6H6Z" fill="#8D8D92"/>
</svg>
