<svg width="44" height="56" viewBox="0 0 44 56" fill="none" xmlns="http://www.w3.org/2000/svg">
<g filter="url(#filter0_d_2014_19034)">
<path fill-rule="evenodd" clip-rule="evenodd" d="M36 47.856H8V41.9579L20.5378 29.3698C21.3426 28.5649 22.0986 27.7626 22.806 26.9629C23.4579 26.226 24.0737 25.4133 24.6522 24.5222C25.1464 23.6254 25.5177 22.6413 25.7608 21.561C25.9938 20.5254 25.9887 19.6522 25.8132 18.9061L25.8054 18.8733L25.7988 18.8402C25.6669 18.1804 25.3557 17.6573 24.8105 17.2095L24.7804 17.1847L24.7513 17.1588C24.392 16.8395 23.6704 16.512 22.24 16.512C21.5298 16.512 20.9276 16.6409 20.4055 16.8706L20.3744 16.8843L20.3428 16.897C19.7795 17.1223 19.3238 17.4247 18.9502 17.7982C18.5916 18.1569 18.3145 18.59 18.1218 19.1254C17.9387 19.634 17.8515 20.2339 17.8996 20.955L18.0702 23.5146L8.3771 21.7523L8.64332 19.8507C9.14604 16.2598 10.6006 13.297 13.1231 11.1621C15.6623 9.0081 18.8529 8 22.528 8C24.2256 8 25.8467 8.25219 27.3776 8.77225C28.923 9.26525 30.2975 10.0319 31.472 11.0821C32.6908 12.1113 33.6412 13.3859 34.3279 14.8739C35.0435 16.4244 35.376 18.1418 35.376 19.984C35.376 21.5371 35.1351 23.0173 34.6331 24.4073C34.1612 25.714 33.5285 26.9598 32.7402 28.1432C32.0052 29.2625 31.1682 30.325 30.2318 31.3308C29.3528 32.2749 28.4576 33.2027 27.5461 34.1143C27.5448 34.1156 27.5435 34.1169 27.5422 34.1182L22.5615 39.152H36V47.856ZM20.5339 41.2012C20.1465 41.2332 19.7552 41.2808 19.36 41.344C18.592 41.472 17.84 41.632 17.104 41.824L26.128 32.704C27.024 31.808 27.904 30.896 28.768 29.968C29.632 29.04 30.4 28.064 31.072 27.04C31.776 25.984 32.336 24.88 32.752 23.728C33.168 22.576 33.376 21.328 33.376 19.984C33.376 18.384 33.088 16.96 32.512 15.712C31.936 14.464 31.152 13.424 30.16 12.592C29.2 11.728 28.064 11.088 26.752 10.672C25.44 10.224 24.032 10 22.528 10C19.232 10 16.528 10.896 14.416 12.688C12.7822 14.0705 11.6518 15.8972 11.0249 18.1681C10.9665 18.3797 10.9125 18.5952 10.8628 18.8145C10.7669 19.2379 10.6873 19.6758 10.624 20.128L15.904 21.088C15.8565 20.3753 15.906 19.7067 16.0525 19.0822C16.1033 18.8655 16.1658 18.6541 16.24 18.448C16.528 17.648 16.96 16.96 17.536 16.384C18.112 15.808 18.8 15.36 19.6 15.04C20.4 14.688 21.28 14.512 22.24 14.512C23.936 14.512 25.216 14.896 26.08 15.664C26.976 16.4 27.536 17.328 27.76 18.448C28.016 19.536 28 20.72 27.712 22C27.424 23.28 26.976 24.464 26.368 25.552C25.728 26.544 25.04 27.456 24.304 28.288C23.568 29.12 22.784 29.952 21.952 30.784L10 42.784V45.856H34V41.152H21.712C21.3234 41.152 20.9307 41.1684 20.5339 41.2012Z" fill="white"/>
</g>
<defs>
<filter id="filter0_d_2014_19034" x="0" y="0" width="44" height="55.856" filterUnits="userSpaceOnUse" color-interpolation-filters="sRGB">
<feFlood flood-opacity="0" result="BackgroundImageFix"/>
<feColorMatrix in="SourceAlpha" type="matrix" values="0 0 0 0 0 0 0 0 0 0 0 0 0 0 0 0 0 0 127 0" result="hardAlpha"/>
<feOffset/>
<feGaussianBlur stdDeviation="4"/>
<feComposite in2="hardAlpha" operator="out"/>
<feColorMatrix type="matrix" values="0 0 0 0 0 0 0 0 0 0 0 0 0 0 0 0 0 0 0.16 0"/>
<feBlend mode="normal" in2="BackgroundImageFix" result="effect1_dropShadow_2014_19034"/>
<feBlend mode="normal" in="SourceGraphic" in2="effect1_dropShadow_2014_19034" result="shape"/>
</filter>
</defs>
</svg>
